<?xml version="1.0" encoding="UTF-8"?>
<!DOCTYPE svg PUBLIC "-//W3C//DTD SVG 1.1//EN" "http://www.w3.org/Graphics/SVG/1.1/DTD/svg11.dtd">
<!-- Creator: CorelDRAW -->
<svg xmlns="http://www.w3.org/2000/svg" xml:space="preserve" width="133.294mm" height="55.8241mm" version="1.1" style="shape-rendering:geometricPrecision; text-rendering:geometricPrecision; image-rendering:optimizeQuality; fill-rule:evenodd; clip-rule:evenodd"
viewBox="0 0 412.3579 172.6974"
 xmlns:xlink="http://www.w3.org/1999/xlink"
 xmlns:xodm="http://www.corel.com/coreldraw/odm/2003">
 <defs>
  <style type="text/css">
   <![CDATA[
    .fil0 {fill:white;fill-rule:nonzero}
    .fil2 {fill:url(#id0);fill-rule:nonzero}
    .fil3 {fill:url(#id1);fill-rule:nonzero}
    .fil4 {fill:url(#id2);fill-rule:nonzero}
    .fil1 {fill:url(#id3);fill-rule:nonzero}
   ]]>
  </style>
  <linearGradient id="id0" gradientUnits="userSpaceOnUse" x1="339.3421" y1="131.822" x2="339.3421" y2="55.475">
   <stop offset="0" style="stop-opacity:1; stop-color:#1F3F8D"/>
   <stop offset="0.380392" style="stop-opacity:1; stop-color:#5C3392"/>
   <stop offset="1" style="stop-opacity:1; stop-color:#992798"/>
  </linearGradient>
  <linearGradient id="id1" gradientUnits="userSpaceOnUse" xlink:href="#id0" x1="235.7384" y1="166.362" x2="235.7384" y2="69.7396">
  </linearGradient>
  <linearGradient id="id2" gradientUnits="userSpaceOnUse" x1="185.0486" y1="0.3938" x2="240.9617" y2="65.6075">
   <stop offset="0" style="stop-opacity:1; stop-color:#FFC800"/>
   <stop offset="1" style="stop-opacity:1; stop-color:#EF2C30"/>
  </linearGradient>
  <linearGradient id="id3" gradientUnits="userSpaceOnUse" x1="104.5151" y1="138.5125" x2="104.5151" y2="54.8118">
   <stop offset="0" style="stop-opacity:1; stop-color:#FFC800"/>
   <stop offset="0.380392" style="stop-opacity:1; stop-color:#F77A18"/>
   <stop offset="1" style="stop-opacity:1; stop-color:#EF2C30"/>
  </linearGradient>
 </defs>
 <g id="Camada_x0020_1">
  <metadata id="CorelCorpID_0Corel-Layer"/>
  <g id="_3213641885040">
   <path id="path25136" class="fil0" d="M412.3579 114.2602c0,-11.7974 -11.3056,-8.5724 -11.2759,-8.7274l3.5654 -19.7774 0.0198 -0.0408 1.6056 -8.9006c1.0094,-4.3886 1.3411,-7.9227 1.0094,-10.7753 -0.6023,-5.4528 -3.9416,-10.3929 -8.9325,-13.2159l-0.2373 -0.1302c-3.3253,-1.6631 -7.1122,-2.5049 -11.257,-2.5049 -1.2195,0 -2.4888,0.073 -3.7878,0.2196 -4.4817,0.5166 -9.3151,2.0217 -13.2007,3.2285l-1.2418 0.3889 -9.2477 9.2242c-3.3782,-5.0457 -9.4345,-7.9626 -17.1896,-7.9626 -1.264,0 -2.5866,0.0795 -3.9115,0.2323 -5.3037,0.5998 -9.8574,2.163 -13.1858,3.3043l-6.1767 6.245 0.9435 -5.5793 -36.3482 4.1504 -2.7409 15.1577c-4.087,-8.9501 -12.2383,-14.3469 -22.5319,-14.3469 -1.1499,0 -2.336,0.0699 -3.5218,0.2039 -4.6472,0.534 -6.8888,1.6343 -9.1388,2.7023l-4.5488 4.8901 0.6592 -4.6073 -32.6786 3.7256c0.2698,-10.8885 -4.8406,-17.0739 -8.3079,-19.1466l-0.1726 -0.1033 -0.18 -0.0919c-3.3343,-1.6628 -7.1147,-2.5009 -11.2424,-2.5009 -1.2244,0 -2.4996,0.073 -3.7838,0.2172 -4.4025,0.5015 -9.2802,2.0077 -13.2081,3.2263l-1.2331 0.3824 -9.3052 9.1772c-3.3912,-5.0119 -9.4342,-7.9066 -17.1571,-7.9066 -1.2616,0 -2.5757,0.0807 -3.9094,0.2299 -5.3621,0.6184 -9.9555,2.202 -13.3062,3.3627l-5.9669 6.0368 0.925 -5.4317 -36.4104 4.1467 -0.7898 4.3796c-4.2299,-1.4144 -7.5951,-2.3221 -13.1524,-3.179 -3.9416,-0.5788 -7.9561,-0.8746 -11.9351,-0.8746 -2.9408,0 -5.8515,0.1643 -8.6568,0.4857 -38.6347,4.3982 -53.2647,36.1026 -50.9872,56.1491 0.9253,8.0895 4.5241,15.0538 9.8045,19.0498 4.082,3.2053 9.141,4.8269 15.0423,4.8269 1.7946,0 3.3504,-0.1488 4.5114,-0.2769 3.3878,-0.3889 6.7645,-1.2022 9.5051,-2.2939l1.1623 -0.4681 5.6842 -6.3945c0.2831,0.7821 0.6023,1.5248 0.9451,2.1971l1.6702 3.256 23.8086 -2.7019 -0.017 0.0931 124.4478 -13.9732 -1.6962 9.3077 -3.8846 21.2524c-2.7703,13.2118 -6.1891,18.8994 -6.1891,18.8994l40.3223 -4.6617 4.5937 -24.9149c0.1649,0.0012 0.3316,0.0012 0.4956,0.0012 2.332,0 4.6729,-0.138 7.1543,-0.4161 17.7981,-2.0263 28.5446,-10.1779 34.9168,-18.1467l-2.4031 13.3198 133.1658 -15.1033c4.7907,-0.4347 9.0899,-3.9614 9.0899,-8.5154z" inkscape:connector-curvature="0"/>
   <path id="path25166" class="fil1" d="M185.9126 54.998c-3.9106,0.4421 -8.4121,1.8379 -12.2349,3.0212l0 0 -14.4994 14.2999c-0.0065,-0.6472 0.0371,-0.6261 0.0609,-0.6073l0 0c0.021,0.017 0.0272,0.0359 -0.0337,-0.503l0 0c-0.9336,-8.1702 -7.9017,-12.2658 -18.092,-11.1035l0 0c-4.8755,0.5627 -9.0902,2.0368 -12.3577,3.1644l0 0 -14.1467 13.7087 2.4378 -12.2544 -26.7903 3.0512 -11.4435 63.3733 26.794 -3.0596 7.8633 -43.9c2.8313,-2.4538 6.9603,-4.6729 10.1693,-5.0478l0 0c3.2053,-0.3616 6.4628,0.8981 6.9157,4.8582l0 0c0.2357,2.1098 -0.3592,5.5573 -0.8022,7.8667l0 0 -6.2775 34.188 27.0684 -3.0862 7.9936 -43.9186c4.108,-3.7204 7.9478,-4.7849 10.1807,-5.032l0 0c3.1963,-0.3725 6.615,0.9946 7.02,4.5909l0 0c0.0699,0.611 0.2311,2.0987 -0.8297,7.605l0 0 -6.3669 34.7093 27.0238 -2.8724 7.755 -42.601c2.2466,-14.1582 -5.3321,-18.6887 -5.3321,-18.6887l0 0c-1.828,-0.9114 -4.6806,-1.9483 -8.8867,-1.9483l0 0c-0.9875,0 -2.0492,0.0569 -3.1889,0.1862m-134.0976 14.0338c-35.5909,4.052 -48.2824,33.1173 -46.3304,50.2905l0 0c0.7477,6.5767 3.5542,12.2655 7.815,15.4906l0 0c5.5434,4.3511 12.2742,3.8373 15.6892,3.4546l0 0c2.9856,-0.3391 5.9323,-1.0704 8.1405,-1.9533l0 0 12.6454 -14.2315c-0.077,1.8054 -0.1652,3.5975 0.1244,6.1222l0 0c0.2657,2.2865 0.9525,4.5006 1.6925,5.9474l0 0 24.767 -2.8152c-0.4347,-1.3646 -0.7115,-2.4786 -0.9163,-4.2444l0 0c-0.3975,-3.5357 0.0634,-7.041 0.5203,-9.3971l0 0 8.1315 -45.0589c-4.2008,-1.432 -7.3393,-2.3558 -13.059,-3.2375l0 0c-3.4936,-0.5154 -7.27,-0.821 -11.1667,-0.821l0 0c-2.6466,0 -5.3476,0.1417 -8.0536,0.4535m-19.3041 43.359c-0.7514,-6.3694 2.5816,-24.9947 18.8162,-26.7912l0 0c1.8193,-0.1986 3.5295,-0.1442 4.8557,0.1983l0 0 -5.2557 27.7242c-0.1748,0.873 -0.2852,2.3394 -0.3672,2.8439l0 0c-1.2866,1.1152 -3.0784,2.7703 -7.5642,3.2622l0 0c-0.5961,0.0668 -1.2034,0.1043 -1.8135,0.1043l0 0c-3.9774,0 -8.0022,-1.6056 -8.6714,-7.3417z" inkscape:connector-curvature="0"/>
   <path id="path25192" class="fil2" d="M383.6765 55.6588c-3.9131,0.4544 -8.4171,1.8429 -12.2398,3.0327l0 0 -13.8776 13.8414c-0.1129,-0.0746 -0.2039,-0.047 -0.2756,-0.021l0 0c-0.1479,0.0535 -0.2333,0.1058 -0.3202,-0.6333l0 0c-0.9216,-8.1813 -7.8933,-12.2754 -18.0935,-11.1045l0 0c-4.8755,0.5562 -9.0977,2.0356 -12.3602,3.157l0 0 -14.019 13.747 2.3183 -12.2868 -26.7952 3.0586 -11.446 63.3721 26.8063 -3.0571 7.8593 -43.9053c2.8328,-2.4576 6.9532,-4.6716 10.1581,-5.0407l0 0c3.2164,-0.3675 6.4653,0.8919 6.9247,4.848l0 0c0.2333,2.1012 -0.3564,5.5573 -0.8145,7.8658l0 0 -6.2738 34.1979 27.0758 -3.08 8.0047 -43.9211c4.0944,-3.7327 7.9317,-4.7932 10.1581,-5.0515l0 0c3.2164,-0.3691 6.624,1.007 7.029,4.5971l0 0c0.0656,0.6138 0.2373,2.1077 -0.8235,7.614l0 0 -6.3756 34.7055 29.9742 -3.3569c-0.4334,-1.3646 -0.7106,-2.4774 -0.9138,-4.2469l0 0c-0.396,-3.5369 0.0634,-7.0441 0.5203,-9.3971l0 0 3.647 -20.221 0.0148 -0.0421 1.5524 -8.5838c0.5664,-2.4449 1.2792,-6.1606 0.934,-9.124l0 0c-0.3326,-2.9804 -2.0427,-6.8016 -6.2809,-9.1994l0 0c-1.8258,-0.9114 -4.6856,-1.9483 -8.899,-1.9483l0 0c-0.9813,0 -2.0368,0.0569 -3.1694,0.1838m0.0006 0l0 0 0 0z" inkscape:connector-curvature="0"/>
   <path id="path25218" class="fil3" d="M255.3163 69.9085c-3.9128,0.4498 -5.915,1.4258 -7.7826,2.3917l0 0 -12.8443 15.128 2.5108 -13.9546 -26.5205 3.0252 -10.3806 56.9965 -3.8781 21.2156c-0.4111,2.3468 -1.5214,8.585 -3.2724,11.6511l0 0 0 0 24.0085 -2.7183 0 -0.0015c2.2441,-0.2558 3.6969,-0.421 3.6969,-0.421l0 0 4.7177 -25.594c4.4272,0.3715 8.0746,0.2011 11.4151,-0.1804l0 0c35.7422,-4.0656 42.6607,-35.0731 41.1504,-48.3208l0 0c-1.4206,-12.4941 -9.3421,-19.3851 -19.903,-19.3863l0 0c-0.9534,0 -1.9261,0.056 -2.9182,0.1689m-26.8271 51.2074l5.4528 -28.3265c2.8684,-2.5309 5.8067,-3.317 7.5691,-3.5106l0 0c2.8548,-0.3155 5.3151,0.5958 6.8833,2.1745l0 0c1.264,1.2628 1.9084,3.2934 2.1473,5.3795l0 0c0.5698,4.7298 -1.5323,22.974 -16.0867,24.5607l0 0c-0.8046,0.091 -1.5511,0.1253 -2.2305,0.1253l0 0c-1.7287,0 -3.0187,-0.2333 -3.7355,-0.4037m0.0003 0.0009l0 0 0 0z" inkscape:connector-curvature="0"/>
   <path id="path25292" class="fil4" d="M216.3515 0.3183c-112.7614,4.8217 -184.8116,65.683 -184.8116,65.683l0 0c0,0 69.7563,-42.9837 182.4073,-49.3083l0 0c112.6432,-6.3298 180.5233,30.4856 180.5233,30.4856l0 0c0,0 -59.5038,-47.1761 -163.2839,-47.1786l0 0c-4.8532,0 -9.7906,0.1018 -14.835,0.3177m0 0.0006l0 0 0 0z" inkscape:connector-curvature="0"/>
  </g>
 </g>
</svg>
