<?xml version="1.0" encoding="UTF-8"?>
<!DOCTYPE svg PUBLIC "-//W3C//DTD SVG 1.1//EN" "http://www.w3.org/Graphics/SVG/1.1/DTD/svg11.dtd">
<!-- Creator: CorelDRAW -->
<svg xmlns="http://www.w3.org/2000/svg" xml:space="preserve" width="55.1182mm" height="53.9256mm" version="1.1" style="shape-rendering:geometricPrecision; text-rendering:geometricPrecision; image-rendering:optimizeQuality; fill-rule:evenodd; clip-rule:evenodd"
viewBox="0 0 10.3415 10.1178"
 xmlns:xlink="http://www.w3.org/1999/xlink"
 xmlns:xodm="http://www.corel.com/coreldraw/odm/2003">
 <defs>
  <style type="text/css">
   <![CDATA[
    .fil3 {fill:#ED3237;fill-rule:nonzero}
    .fil0 {fill:url(#id0)}
    .fil1 {fill:url(#id1)}
    .fil4 {fill:url(#id2)}
    .fil5 {fill:url(#id3)}
    .fil2 {fill:url(#id4)}
   ]]>
  </style>
  <linearGradient id="id0" gradientUnits="userSpaceOnUse" x1="5.3491" y1="9.4139" x2="5.3491" y2="4.9614">
   <stop offset="0" style="stop-opacity:1; stop-color:#B30000"/>
   <stop offset="0.501961" style="stop-opacity:1; stop-color:#D13737"/>
   <stop offset="1" style="stop-opacity:1; stop-color:#B43336"/>
  </linearGradient>
  <linearGradient id="id1" gradientUnits="userSpaceOnUse" xlink:href="#id0" x1="2.5119" y1="1.0669" x2="3.3386" y2="1.9557">
  </linearGradient>
  <linearGradient id="id2" gradientUnits="userSpaceOnUse" xlink:href="#id0" x1="1.4218" y1="0.261" x2="8.027" y2="6.8662">
  </linearGradient>
  <linearGradient id="id3" gradientUnits="userSpaceOnUse" x1="7.6704" y1="5.0647" x2="7.6705" y2="6.3288">
   <stop offset="0" style="stop-opacity:1; stop-color:#8F342F"/>
   <stop offset="1" style="stop-opacity:1; stop-color:#ED3237"/>
  </linearGradient>
  <linearGradient id="id4" gradientUnits="userSpaceOnUse" xlink:href="#id0" x1="2.5025" y1="3.7538" x2="4.2023" y2="7.7627">
  </linearGradient>
 </defs>
 <g id="Camada_x0020_1">
  <metadata id="CorelCorpID_0Corel-Layer"/>
  <g id="_2364208765504">
   <path class="fil0" d="M5.5229 0.4803l0 0c-0.1486,0.0007 -0.2707,0.0678 -0.3678,0.1677 -0.0975,0.1004 -0.1463,0.2337 -0.1463,0.4 0,0.1549 0.0502,0.2839 0.1505,0.3871 0.0929,0.0955 0.2138,0.1616 0.3635,0.1709l0 0.0002c2.0361,0 3.6927,1.6565 3.6927,3.6927 0,2.0363 -1.6566,3.6928 -3.6927,3.6928 -2.0362,0 -3.6928,-1.6566 -3.6928,-3.6928 0,-0.1279 0.0065,-0.2544 0.0193,-0.379l-0.0044 0c-0.0088,-0.1507 -0.075,-0.2723 -0.171,-0.3656 -0.1032,-0.1004 -0.2323,-0.1506 -0.3871,-0.1506 -0.1663,0 -0.2997,0.0488 -0.4001,0.1462 -0.1004,0.0975 -0.1678,0.2204 -0.1678,0.3699 -0.0098,0.1251 -0.0149,0.2515 -0.0149,0.379 0,2.6571 2.1617,4.8188 4.8188,4.8188 2.657,0 4.8187,-2.1617 4.8187,-4.8188 0,-2.6563 -2.1605,-4.8175 -4.8165,-4.8187l0 -0 -0.0014 0 -0.0008 -0z"/>
   <path class="fil1" d="M3.3476 0.506c-0.0871,-0.0381 -0.187,-0.0572 -0.2998,-0.0572 -0.1823,0 -0.3341,0.0591 -0.4556,0.1772 -0.1215,0.1181 -0.2025,0.2746 -0.2025,0.4708l0 1.292 0.9075 0 0 -1.6301c0,-0.0931 0.0182,-0.1772 0.0504,-0.2526z"/>
   <path class="fil2" d="M3.1236 7.5684c0.8236,0.7983 1.9693,0.9042 2.8722,0.3323 -0.6849,0.0983 -1.4003,-0.1236 -1.9646,-0.6705 -0.2193,-0.2126 -0.3949,-0.4624 -0.5265,-0.7492 -0.1316,-0.2868 -0.2076,-0.5922 -0.2076,-0.9163l0 -1.928 -1.7799 0c-0.1846,0 -0.3319,-0.0762 -0.443,-0.1905 -0.1111,-0.1143 -0.1667,-0.2572 -0.1667,-0.4287 0,-0.1099 0.0192,-0.2068 0.0576,-0.2906l-0.3936 0c-0.1656,0 -0.3017,0.0746 -0.4097,0.1858 -0.108,0.1111 -0.162,0.2588 -0.162,0.443 0,0.1715 0.0556,0.3144 0.1667,0.4287 0.1111,0.1144 0.2584,0.1905 0.443,0.1905l1.7799 0 0 1.928c0,0.324 0.076,0.6294 0.2076,0.9163 0.1316,0.2869 0.3071,0.5367 0.5265,0.7492z"/>
   <path class="fil3" d="M4.0294 7.4299c1.0172,0.9859 2.5051,0.9598 3.4867,-0.0529 0.2219,-0.2289 0.398,-0.4966 0.5283,-0.803 0.1108,-0.2607 0.1797,-0.5354 0.2064,-0.8242 0.004,-0.0427 0.007,-0.0858 0.0091,-0.1292 -0.0016,-0.0523 -0.0048,-0.1042 -0.0097,-0.1555 -0.0238,-0.1397 -0.0871,-0.2596 -0.19,-0.3598 -0.1338,-0.1303 -0.2955,-0.2096 -0.4861,-0.2166 -0.19,-0.007 -0.3504,0.0669 -0.4807,0.2007 -0.1303,0.1338 -0.1994,0.2994 -0.206,0.4966 -0.0004,0.0114 -0.0002,0.0228 -0.0005,0.0341 0.0046,0.0388 0.007,0.0965 0.007,0.1184 0,0.0219 -0,0.0075 -0.0001,0.0112 -0.0094,0.8481 -1.2622,1.3489 -1.8977,0.7133 -0.1057,-0.1057 -0.1902,-0.2307 -0.2536,-0.3751 -0.0634,-0.1444 -0.0951,-0.3011 -0.0951,-0.4702l0 -1.938 1.8631 0c0.1926,0 0.3464,-0.0795 0.4623,-0.1988 0.116,-0.1193 0.174,-0.2684 0.174,-0.4474 0,-0.1922 -0.0563,-0.3463 -0.169,-0.4623 -0.1127,-0.116 -0.2547,-0.1939 -0.4275,-0.1939l-1.9029 0 0 -1.7434c0,-0.1837 -0.0827,-0.3346 -0.206,-0.4544 -0.1233,-0.1197 -0.287,-0.1796 -0.4913,-0.1796 -0.1902,0 -0.3487,0.0617 -0.4754,0.1849 -0.1268,0.1232 -0.2114,0.2866 -0.2114,0.4913l0 1.7011 -1.8973 0c-0.1728,0 -0.3148,0.0779 -0.4275,0.1939 -0.1127,0.116 -0.169,0.2701 -0.169,0.4623 0,0.179 0.058,0.3281 0.174,0.4474 0.116,0.1193 0.2697,0.1988 0.4623,0.1988l1.8575 0 0 2.012c0,0.3381 0.0793,0.6569 0.2166,0.9562 0.1373,0.2993 0.3205,0.56 0.5494,0.7819z"/>
   <path class="fil4" d="M5.5746 1.4159c1.068,0.0009 2.0364,0.4356 2.738,1.1372 0.7022,0.7022 1.1372,1.6718 1.1372,2.7412 0,0.2464 -0.0232,0.4875 -0.0673,0.7212 0.2583,-0.0265 0.5172,-0.0526 0.7775,-0.0775 0.0294,-0.2104 0.0446,-0.4253 0.0446,-0.6437 0,-1.2774 -0.5193,-2.4356 -1.3578,-3.2745 -0.8386,-0.839 -1.9963,-1.3588 -3.2731,-1.3594l-0.0033 0c-0.0424,0.0004 -0.0813,0.0098 -0.1167,0.026 -0.0424,0.0193 -0.0816,0.0492 -0.1173,0.086 -0.0303,0.0312 -0.0531,0.0677 -0.0684,0.1093 -0.0166,0.0455 -0.025,0.0994 -0.025,0.1617 0,0.0553 0.0082,0.1041 0.0246,0.1462 0.0159,0.0408 0.0402,0.0781 0.073,0.1119 0.0337,0.0347 0.0716,0.0632 0.1135,0.0829 0.0358,0.0168 0.076,0.0279 0.1205,0.0316zm-3.5359 5.6435c-0.2576,-0.5186 -0.4026,-1.1026 -0.4026,-1.7199 0,-0.0605 0.0019,-0.1271 0.0056,-0.1996 0.0026,-0.0516 0.0063,-0.1029 0.0109,-0.154l-0.0009 -0.0153c-0.0028,-0.0478 -0.0141,-0.0907 -0.0318,-0.1287 -0.0198,-0.0423 -0.0486,-0.0806 -0.0834,-0.1144 -0.0338,-0.0328 -0.0711,-0.0572 -0.1119,-0.0731 -0.0421,-0.0164 -0.0909,-0.0246 -0.1462,-0.0246 -0.0623,0 -0.1162,0.0083 -0.1617,0.025 -0.0416,0.0152 -0.0781,0.038 -0.1093,0.0684 -0.0365,0.0354 -0.0663,0.0747 -0.0857,0.1176 -0.0163,0.0359 -0.0255,0.0757 -0.0255,0.1197l-0.0007 0.0145c-0.0053,0.0675 -0.009,0.1282 -0.0111,0.1819 -0.002,0.0506 -0.003,0.1114 -0.003,0.1826 0,0.6603 0.1388,1.2887 0.3889,1.8576 0.2549,-0.0466 0.5107,-0.0927 0.7685,-0.1377zm2.4416 -4.4826l0 -1.9536c0,-0.0596 -0.0126,-0.1137 -0.0347,-0.1624 -0.0259,-0.0573 -0.0654,-0.1094 -0.1136,-0.1562 -0.0422,-0.041 -0.0915,-0.0718 -0.1477,-0.0923 -0.0603,-0.022 -0.131,-0.0331 -0.212,-0.0331 -0.0726,0 -0.1372,0.011 -0.1935,0.0329 -0.055,0.0214 -0.1051,0.054 -0.1502,0.0979 -0.0487,0.0473 -0.0888,0.1024 -0.1159,0.1653 -0.0241,0.056 -0.0378,0.1195 -0.0378,0.1906l0 1.911 -2.1087 0c-0.0544,0 -0.1037,0.0115 -0.1481,0.0316 -0.0524,0.0238 -0.1004,0.06 -0.1434,0.1044 -0.0374,0.0386 -0.0656,0.0835 -0.0844,0.1349 -0.0203,0.0554 -0.0304,0.1206 -0.0304,0.1956 0,0.067 0.0101,0.1263 0.0301,0.178 0.0196,0.0502 0.0494,0.0961 0.0896,0.1374 0.0435,0.0447 0.0941,0.0816 0.1518,0.1064 0.0513,0.022 0.1095,0.0346 0.1748,0.0346l2.0687 0 0 2.5248 1.0053 -0.1492 0 -2.3756 2.0743 0c0.0653,0 0.1235,-0.0125 0.1748,-0.0346 0.0577,-0.0248 0.1083,-0.0617 0.1518,-0.1064 0.0402,-0.0414 0.0701,-0.0872 0.0896,-0.1374 0.0201,-0.0517 0.0302,-0.111 0.0302,-0.178 0,-0.0749 -0.0102,-0.1401 -0.0304,-0.1956 -0.0188,-0.0514 -0.0469,-0.0963 -0.0843,-0.1349 -0.0431,-0.0443 -0.091,-0.0806 -0.1434,-0.1044 -0.0444,-0.0202 -0.0938,-0.0316 -0.1481,-0.0316l-2.1145 0z"/>
   <path class="fil5" d="M7.9733 6.1944c0.0038,-0.0141 0.0075,-0.0282 0.011,-0.0424 0.0311,-0.1243 0.0526,-0.2499 0.0643,-0.3767l0.0043 -0.058c0.0016,-0.0225 0.0027,-0.0399 0.0034,-0.0523 -0.0006,-0.0163 -0.0017,-0.0367 -0.0032,-0.0607 -0.0014,-0.0222 -0.0028,-0.0415 -0.0042,-0.0577 -0.0081,-0.046 -0.0226,-0.0886 -0.0433,-0.1278 -0.0213,-0.0403 -0.0495,-0.0776 -0.0846,-0.1118 -0.0505,-0.0491 -0.1054,-0.088 -0.1645,-0.1144 -0.0547,-0.0244 -0.1143,-0.0386 -0.1788,-0.041 -0.0613,-0.0023 -0.1178,0.0082 -0.1694,0.0297 -0.055,0.023 -0.1058,0.0593 -0.1521,0.1068 -0.0458,0.0471 -0.0808,0.0996 -0.1048,0.1575 -0.0245,0.059 -0.038,0.1241 -0.0404,0.1952l-0.0002 0.0137c0.0016,0.0157 0.0031,0.0359 0.0043,0.0566 0.002,0.0326 0.0029,0.059 0.0029,0.0701l-0.0007 0 -0 0.007 0.0007 0.005 -0.0328 0 0.0321 0.0003 0 0.0029c-0.0027,0.1927 -0.059,0.3689 -0.1533,0.5222 0.3345,-0.0428 0.6709,-0.0841 1.0092,-0.1241z"/>
  </g>
 </g>
</svg>
